<?xml version="1.0" standalone="no"?>
<!DOCTYPE svg PUBLIC "-//W3C//DTD SVG 20010904//EN"
 "http://www.w3.org/TR/2001/REC-SVG-20010904/DTD/svg10.dtd">
<svg version="1.0" xmlns="http://www.w3.org/2000/svg"
 width="1024.000000pt" height="1024.000000pt" viewBox="0 0 1024.000000 1024.000000"
 preserveAspectRatio="xMidYMid meet">
<metadata>
Created by potrace 1.16, written by Peter Selinger 2001-2019
</metadata>
<g transform="translate(0.000000,1024.000000) scale(0.100000,-0.100000)"
fill="#000000" stroke="none">
<path d="M3255 7838 c-49 -3 -99 -4 -110 -2 -14 4 -16 3 -7 -4 10 -6 1 -11
-29 -16 -55 -9 -180 -51 -241 -82 -53 -27 -62 -29 -52 -12 4 7 3 8 -5 4 -6 -4
-9 -11 -6 -16 7 -12 -46 -39 -65 -33 -12 4 -13 3 -1 -5 11 -8 7 -13 -17 -26
-17 -9 -57 -41 -90 -71 -32 -30 -62 -51 -66 -47 -4 4 -6 0 -4 -8 2 -8 -4 -14
-12 -15 -8 -1 -14 -7 -12 -13 1 -7 -18 -38 -43 -69 -83 -102 -176 -288 -200
-401 -4 -19 -11 -30 -17 -26 -7 4 -8 2 -4 -4 4 -6 -1 -60 -10 -119 -16 -98
-18 -237 -18 -1523 -1 -1363 3 -1710 19 -1794 6 -31 5 -37 -5 -31 -10 6 -12 4
-7 -9 4 -10 7 -25 8 -34 1 -10 4 -7 9 8 l8 25 1 -24 c1 -13 17 -71 36 -128 19
-58 32 -110 28 -116 -3 -7 -2 -9 2 -5 11 10 77 -110 69 -124 -5 -7 -2 -8 6 -3
9 6 10 1 5 -16 -4 -15 -3 -19 2 -11 7 9 15 4 33 -20 13 -17 23 -37 23 -44 0
-7 3 -12 7 -11 12 3 100 -100 92 -107 -4 -4 0 -6 8 -4 8 2 14 -3 12 -10 -1 -8
2 -11 6 -8 11 6 49 -33 42 -43 -3 -3 4 -6 15 -6 11 0 20 -7 20 -15 0 -8 9 -15
20 -15 11 0 19 -6 18 -12 -2 -7 0 -12 5 -11 4 2 54 -21 112 -49 121 -60 170
-77 295 -104 117 -26 321 -32 439 -13 176 27 366 103 484 194 29 22 57 38 63
35 5 -4 8 -1 7 7 -2 7 3 12 9 11 7 -2 12 3 10 10 -1 6 4 11 10 10 7 -2 12 3
10 10 -1 7 6 11 18 10 11 -1 14 0 7 3 -10 5 -10 10 4 25 9 10 22 16 28 12 6
-3 8 -3 4 2 -10 11 51 87 64 79 7 -4 8 -2 4 4 -3 6 10 37 30 68 74 116 134
275 166 439 10 57 13 373 13 1665 0 1488 -1 1602 -18 1695 -25 141 -49 216
-106 329 -28 55 -48 103 -45 108 3 5 1 7 -4 6 -9 -3 -72 74 -72 86 0 2 -28 34
-62 71 -110 117 -296 241 -425 282 -35 11 -49 20 -41 25 7 4 -2 5 -21 1 -23
-4 -32 -3 -28 5 5 6 0 8 -12 5 -11 -3 -37 1 -58 8 -50 16 -245 26 -358 17z
m140 -538 c-28 -5 -13 -6 50 -6 73 1 101 -3 150 -23 71 -29 140 -72 140 -88 0
-6 4 -15 9 -20 5 -5 6 -3 2 5 -14 24 10 12 43 -21 17 -19 31 -40 29 -48 -2 -7
3 -13 10 -14 8 0 24 -18 38 -40 25 -43 32 -71 12 -59 -7 4 -8 3 -4 -5 4 -6 11
-9 16 -6 4 3 15 -12 23 -33 41 -104 42 -111 42 -1249 0 -648 -4 -1089 -9
-1085 -5 3 -5 -1 0 -9 11 -18 13 -821 2 -924 -10 -97 -29 -160 -75 -245 -40
-74 -71 -112 -86 -103 -6 3 -7 2 -4 -4 15 -24 -138 -134 -176 -126 -16 3 -18
2 -9 -5 17 -12 -70 -38 -89 -27 -7 5 -10 4 -6 -2 7 -12 -59 -23 -134 -23 -107
0 -298 57 -282 83 3 6 1 7 -6 3 -14 -9 -64 21 -56 34 3 5 0 12 -6 16 -8 4 -9
3 -5 -4 4 -7 3 -12 -2 -12 -16 0 -72 72 -65 83 3 5 1 7 -5 3 -22 -13 -81 95
-112 205 -20 73 -20 90 -20 1661 0 1548 1 1588 20 1664 11 42 20 80 20 83 0 3
5 -1 11 -9 9 -13 10 -12 5 3 -10 31 66 163 86 151 7 -5 8 -2 3 5 -11 19 86
105 158 141 76 37 171 59 257 58 57 -1 60 -2 25 -8z"/>
<path d="M5600 7830 c0 -7 -88 -10 -262 -10 l-263 1 1 -2583 c0 -1835 -3
-2585 -10 -2590 -6 -5 122 -7 284 -5 l295 2 5 910 5 910 41 55 c22 30 100 139
173 243 73 103 136 189 140 192 11 6 92 -135 85 -147 -4 -6 -3 -8 3 -5 6 4 14
0 17 -9 4 -10 2 -13 -7 -9 -6 4 -2 -2 11 -12 16 -13 21 -25 17 -38 -5 -14 -4
-16 3 -7 7 10 22 -8 58 -70 76 -130 85 -148 79 -158 -3 -5 0 -12 6 -16 8 -5 9
-3 4 6 -6 9 -4 11 4 6 7 -5 10 -15 7 -23 -3 -8 -2 -11 4 -8 5 3 26 -25 47 -62
20 -38 35 -68 33 -69 -3 0 3 -8 13 -18 9 -10 14 -23 10 -29 -3 -7 -3 -9 2 -5
7 6 75 -92 75 -107 0 -3 16 -30 35 -60 20 -31 33 -61 29 -68 -4 -6 -4 -9 1 -5
7 7 155 -226 155 -245 0 -5 -5 -5 -12 -1 -7 4 -8 3 -4 -5 4 -6 11 -9 16 -6 13
8 31 -31 24 -52 -4 -13 -3 -14 4 -5 7 10 21 -7 56 -67 27 -45 44 -86 40 -92
-4 -7 -3 -9 4 -6 13 9 105 -149 96 -165 -4 -6 -3 -8 3 -5 13 8 86 -110 77
-124 -3 -5 -1 -9 5 -9 15 0 82 -120 75 -133 -4 -7 -3 -9 1 -4 5 4 21 -13 37
-38 29 -47 34 -60 19 -50 -5 3 -12 1 -16 -4 -3 -6 3 -8 13 -6 13 2 23 -5 32
-23 6 -15 11 -29 10 -31 -1 -2 6 -8 15 -13 10 -6 14 -17 11 -31 -3 -12 -3 -16
0 -9 4 9 21 -11 46 -52 21 -36 36 -71 33 -76 -3 -6 1 -13 9 -16 8 -3 24 -21
36 -40 23 -40 25 -48 8 -38 -7 4 -8 3 -4 -5 4 -6 11 -9 15 -7 4 3 14 -6 21
-19 l13 -25 314 0 c172 0 313 3 313 6 0 3 -12 25 -26 49 -14 25 -22 50 -18 56
4 7 3 9 -3 6 -14 -9 -64 87 -57 109 4 14 3 15 -4 6 -6 -10 -41 44 -125 195
-78 140 -111 210 -103 215 7 5 5 8 -5 8 -17 0 -93 131 -84 144 3 3 2 4 -2 1
-6 -5 -132 212 -133 228 0 5 5 5 12 1 7 -4 8 -3 4 5 -4 6 -11 9 -15 7 -12 -8
-213 362 -205 375 5 8 3 9 -6 4 -10 -6 -12 -4 -7 9 4 10 3 15 -3 11 -12 -8
-53 72 -44 87 4 6 3 8 -4 5 -6 -4 -35 38 -71 101 -62 111 -70 129 -49 116 7
-4 8 -3 4 5 -4 6 -11 9 -15 6 -5 -2 -59 86 -121 198 -62 111 -124 221 -137
244 -18 31 -21 42 -11 46 9 4 9 6 -2 6 -9 1 -61 83 -128 204 -62 111 -128 230
-147 265 -20 34 -33 68 -29 74 4 6 3 8 -3 5 -12 -8 -26 18 -27 48 -1 11 -6 20
-13 20 -22 0 -25 13 -8 39 11 16 23 23 33 19 13 -4 14 -3 4 5 -11 7 2 31 57
108 185 259 238 329 250 326 7 -1 10 2 6 7 -9 15 44 93 57 85 7 -4 8 -3 4 4
-9 15 34 73 47 65 6 -3 7 -1 3 5 -4 7 12 37 36 69 24 32 75 102 112 155 38 54
73 95 79 91 6 -3 7 -2 4 4 -9 14 42 85 55 77 7 -4 8 -3 4 4 -4 7 79 131 190
286 146 204 201 273 213 269 13 -4 13 -3 2 5 -11 8 -4 23 34 76 26 37 51 63
57 59 7 -3 8 -1 4 5 -6 10 63 113 197 294 11 15 25 24 30 21 6 -3 7 -1 3 5 -6
10 95 160 146 218 10 11 15 24 11 27 -3 4 -34 6 -67 6 -53 -1 -56 -3 -26 -9
23 -5 -4 -8 -82 -9 -85 -1 -118 2 -121 12 -4 10 -6 10 -6 0 -1 -10 -41 -13
-165 -13 l-165 0 -27 -35 c-14 -19 -31 -32 -37 -28 -5 3 -7 2 -4 -4 8 -13 -22
-55 -34 -48 -5 3 -6 0 -3 -8 3 -8 -3 -20 -12 -28 -16 -12 -17 -12 -9 1 8 13 7
13 -8 1 -19 -15 -23 -36 -5 -25 6 4 -1 -9 -16 -29 -16 -20 -33 -34 -39 -30 -6
3 -7 1 -3 -5 8 -13 -91 -148 -106 -144 -5 1 -7 -1 -4 -6 7 -12 -23 -54 -35
-47 -5 3 -7 0 -4 -7 3 -7 -5 -24 -16 -38 -11 -14 -17 -19 -13 -11 5 10 3 12
-5 7 -7 -5 -10 -10 -7 -13 5 -5 -51 -93 -59 -93 -2 0 -3 6 -1 13 1 6 1 9 -1 4
-3 -4 -10 -4 -16 0 -7 4 -6 -1 2 -10 11 -14 11 -20 1 -32 -7 -8 -16 -13 -20
-10 -4 3 -7 -3 -6 -13 0 -9 -5 -16 -12 -14 -8 1 -11 -1 -8 -6 3 -5 -2 -19 -11
-31 -12 -19 -17 -20 -25 -10 -7 10 -8 9 -4 -5 7 -20 -11 -49 -25 -40 -5 3 -7
-1 -4 -8 2 -7 -7 -26 -21 -43 -16 -18 -24 -23 -20 -12 4 11 2 16 -5 12 -6 -4
-8 -13 -5 -20 6 -16 -81 -138 -94 -130 -5 3 -12 0 -16 -6 -4 -8 -3 -9 4 -5 22
13 12 -3 -54 -94 -37 -49 -71 -87 -77 -83 -6 3 -7 1 -3 -5 8 -14 -131 -199
-146 -194 -5 1 -7 -2 -3 -8 8 -13 -75 -121 -88 -113 -5 3 -7 1 -4 -5 11 -17
-220 -325 -236 -315 -6 3 -7 1 -3 -6 9 -14 -32 -74 -45 -66 -5 4 -6 0 -3 -8 3
-9 -4 -22 -18 -31 -12 -9 -19 -16 -14 -16 5 0 3 -7 -4 -15 -7 -8 -16 -13 -20
-10 -5 3 -12 0 -16 -6 -5 -8 -3 -9 6 -4 8 5 11 3 8 -6 -3 -8 -11 -13 -17 -11
-7 1 -10 -1 -7 -6 7 -12 -222 -318 -235 -314 -6 1 -8 -2 -4 -8 10 -17 -6 -34
-17 -19 -8 11 -9 11 -5 -1 6 -20 -11 -52 -23 -45 -6 3 -7 0 -4 -8 3 -8 1 -18
-5 -22 -7 -4 -11 5 -11 24 0 17 5 31 10 31 6 0 10 8 10 18 0 14 -2 15 -10 2
-6 -10 -10 386 -10 1138 0 634 -2 1157 -5 1162 -3 5 -13 6 -22 3 -11 -4 -14
-3 -9 5 4 7 2 12 -3 12 -6 0 -11 -5 -11 -10z"/>
</g>
</svg>
